<svg width="16" height="16" viewBox="0 0 16 16" fill="none" xmlns="http://www.w3.org/2000/svg">
<path d="M15.8485 15.1295L11.7175 11.0646C12.7993 9.88931 13.464 8.33496 13.464 6.62455C13.4634 2.96568 10.4497 0 6.73171 0C3.01376 0 0 2.96568 0 6.62455C0 10.2834 3.01376 13.2491 6.73171 13.2491C8.33813 13.2491 9.81149 12.6935 10.9688 11.7698L15.1159 15.8507C15.3179 16.0498 15.646 16.0498 15.848 15.8507C16.0506 15.6517 16.0506 15.3286 15.8485 15.1295ZM6.73171 12.2299C3.58592 12.2299 1.03577 9.72029 1.03577 6.62455C1.03577 3.52881 3.58592 1.01923 6.73171 1.01923C9.87753 1.01923 12.4277 3.52881 12.4277 6.62455C12.4277 9.72029 9.87753 12.2299 6.73171 12.2299Z" fill="#666666"/>
</svg>
